<svg xmlns="http://www.w3.org/2000/svg" version="1.1" xmlns:xlink="http://www.w3.org/1999/xlink" xmlns:svgjs="http://svgjs.dev/svgjs" width="500" height="500"><svg xmlns="http://www.w3.org/2000/svg" xmlns:xlink="http://www.w3.org/1999/xlink" width="500" zoomAndPan="magnify" viewBox="0 0 375 374.999991" height="500" preserveAspectRatio="xMidYMid meet" version="1.0"><defs><clipPath id="SvgjsClipPath1001"><path d="M 46.949219 38 L 323 38 L 323 337.445312 L 46.949219 337.445312 Z M 46.949219 38 " clip-rule="nonzero"></path></clipPath></defs><path fill="#afb42b" d="M 234.429688 149.5625 C 239.757812 154.84375 248.351562 154.800781 253.625 149.476562 C 258.90625 144.152344 258.863281 135.558594 253.539062 130.28125 C 221.679688 98.714844 170.085938 98.945312 138.519531 130.804688 C 106.953125 162.664062 107.191406 214.257812 139.042969 245.824219 C 154.976562 261.605469 175.832031 269.4375 196.664062 269.347656 C 217.492188 269.253906 238.285156 261.226562 254.070312 245.300781 C 259.347656 239.976562 259.304688 231.382812 253.980469 226.101562 C 248.660156 220.828125 240.066406 220.867188 234.785156 226.191406 C 213.753906 247.410156 179.378906 247.566406 158.160156 226.539062 C 136.941406 205.507812 136.777344 171.132812 157.808594 149.90625 C 178.835938 128.695312 213.203125 128.53125 234.429688 149.5625 Z M 234.429688 149.5625 " fill-opacity="1" fill-rule="nonzero"></path><g clip-path="url(#6c6acb15c3)"><path fill="#afb42b" d="M 322.019531 245.070312 C 321.9375 226.9375 314.800781 209.925781 301.925781 197.164062 C 296.605469 191.894531 296.570312 183.285156 301.835938 177.964844 C 328.171875 151.386719 327.972656 108.324219 301.394531 81.988281 C 242.910156 24.035156 148.171875 24.464844 90.21875 82.953125 C 62.148438 111.289062 46.785156 148.851562 46.972656 188.738281 C 47.152344 228.625 62.855469 266.050781 91.1875 294.121094 C 120.433594 323.097656 158.734375 337.476562 196.972656 337.304688 C 235.210938 337.128906 273.378906 322.398438 302.355469 293.15625 C 315.125 280.28125 322.101562 263.199219 322.019531 245.070312 Z M 283.078125 274.046875 C 235.664062 321.894531 158.152344 322.25 110.296875 274.835938 C 87.117188 251.871094 74.269531 221.246094 74.117188 188.613281 C 73.96875 155.980469 86.539062 125.242188 109.503906 102.058594 C 156.917969 54.210938 234.429688 53.855469 282.285156 101.265625 C 298.234375 117.074219 298.355469 142.910156 282.546875 158.855469 C 266.746094 174.800781 266.863281 200.640625 282.808594 216.449219 C 290.535156 224.105469 294.816406 234.316406 294.867188 245.195312 C 294.921875 256.070312 290.734375 266.320312 283.078125 274.046875 " fill-opacity="1" fill-rule="nonzero"></path></g><path fill="#afb42b" d="M 194.320312 210.105469 C 193.597656 210.105469 192.875 210.070312 192.15625 210 C 191.4375 209.929688 190.722656 209.824219 190.015625 209.683594 C 189.308594 209.542969 188.609375 209.367188 187.917969 209.15625 C 187.226562 208.949219 186.546875 208.703125 185.878906 208.429688 C 185.210938 208.152344 184.558594 207.84375 183.921875 207.503906 C 183.285156 207.164062 182.667969 206.792969 182.066406 206.390625 C 181.464844 205.988281 180.886719 205.558594 180.328125 205.101562 C 179.769531 204.644531 179.234375 204.15625 178.722656 203.648438 C 178.210938 203.136719 177.726562 202.601562 177.269531 202.042969 C 176.8125 201.484375 176.382812 200.90625 175.980469 200.304688 C 175.578125 199.703125 175.207031 199.085938 174.867188 198.449219 C 174.527344 197.8125 174.21875 197.160156 173.941406 196.492188 C 173.664062 195.824219 173.421875 195.144531 173.214844 194.453125 C 173.003906 193.761719 172.828125 193.0625 172.6875 192.355469 C 172.546875 191.644531 172.441406 190.933594 172.371094 190.214844 C 172.296875 189.496094 172.261719 188.773438 172.261719 188.050781 C 172.261719 187.328125 172.296875 186.609375 172.371094 185.890625 C 172.441406 185.171875 172.546875 184.457031 172.6875 183.75 C 172.828125 183.039062 173.003906 182.339844 173.214844 181.648438 C 173.421875 180.957031 173.664062 180.277344 173.941406 179.613281 C 174.21875 178.945312 174.527344 178.292969 174.867188 177.65625 C 175.207031 177.019531 175.578125 176.398438 175.980469 175.796875 C 176.382812 175.199219 176.8125 174.617188 177.269531 174.058594 C 177.726562 173.5 178.210938 172.96875 178.722656 172.457031 C 179.234375 171.945312 179.769531 171.460938 180.328125 171.003906 C 180.886719 170.542969 181.464844 170.113281 182.066406 169.714844 C 182.667969 169.3125 183.285156 168.941406 183.921875 168.601562 C 184.558594 168.261719 185.210938 167.953125 185.878906 167.675781 C 186.546875 167.398438 187.226562 167.15625 187.917969 166.945312 C 188.609375 166.738281 189.308594 166.5625 190.015625 166.421875 C 190.722656 166.28125 191.4375 166.171875 192.15625 166.101562 C 192.875 166.03125 193.597656 165.996094 194.320312 165.996094 C 195.042969 165.996094 195.761719 166.03125 196.480469 166.101562 C 197.199219 166.171875 197.914062 166.28125 198.621094 166.421875 C 199.328125 166.5625 200.03125 166.738281 200.722656 166.945312 C 201.414062 167.15625 202.089844 167.398438 202.757812 167.675781 C 203.425781 167.953125 204.078125 168.261719 204.714844 168.601562 C 205.351562 168.941406 205.972656 169.3125 206.570312 169.714844 C 207.171875 170.113281 207.753906 170.542969 208.308594 171.003906 C 208.867188 171.460938 209.402344 171.945312 209.914062 172.457031 C 210.425781 172.96875 210.910156 173.5 211.367188 174.058594 C 211.824219 174.617188 212.253906 175.199219 212.65625 175.796875 C 213.058594 176.398438 213.429688 177.019531 213.769531 177.65625 C 214.109375 178.292969 214.417969 178.945312 214.695312 179.613281 C 214.972656 180.277344 215.214844 180.957031 215.425781 181.648438 C 215.632812 182.339844 215.808594 183.039062 215.949219 183.75 C 216.089844 184.457031 216.195312 185.171875 216.269531 185.890625 C 216.339844 186.609375 216.375 187.328125 216.375 188.050781 C 216.375 188.773438 216.339844 189.496094 216.269531 190.214844 C 216.195312 190.933594 216.089844 191.644531 215.949219 192.355469 C 215.808594 193.0625 215.632812 193.761719 215.425781 194.453125 C 215.214844 195.144531 214.972656 195.824219 214.695312 196.492188 C 214.417969 197.160156 214.109375 197.8125 213.769531 198.449219 C 213.429688 199.085938 213.058594 199.703125 212.65625 200.304688 C 212.253906 200.90625 211.824219 201.484375 211.367188 202.042969 C 210.910156 202.601562 210.425781 203.136719 209.914062 203.648438 C 209.402344 204.15625 208.867188 204.640625 208.308594 205.101562 C 207.753906 205.558594 207.171875 205.988281 206.570312 206.390625 C 205.972656 206.792969 205.351562 207.164062 204.714844 207.503906 C 204.078125 207.84375 203.425781 208.152344 202.757812 208.429688 C 202.089844 208.703125 201.414062 208.949219 200.722656 209.15625 C 200.03125 209.367188 199.328125 209.542969 198.621094 209.683594 C 197.914062 209.824219 197.199219 209.929688 196.480469 210 C 195.761719 210.070312 195.042969 210.105469 194.320312 210.105469 Z M 194.320312 210.105469 " fill-opacity="1" fill-rule="nonzero"></path></svg><style>@media (prefers-color-scheme: light) { :root { filter: none; } }
@media (prefers-color-scheme: dark) { :root { filter: none; } }
</style></svg>