<svg xmlns="http://www.w3.org/2000/svg" xmlns:xlink="http://www.w3.org/1999/xlink" width="750" zoomAndPan="magnify" viewBox="0 0 562.5 187.499995" height="250" preserveAspectRatio="xMidYMid meet" version="1.0"><defs><g/><clipPath id="f8862d5b43"><path d="M 1.609375 9 L 156 9 L 156 178 L 1.609375 178 Z M 1.609375 9 " clip-rule="nonzero"/></clipPath></defs><path fill="#afb42b" d="M 106.726562 72.242188 C 109.722656 75.210938 114.554688 75.1875 117.519531 72.195312 C 120.484375 69.203125 120.460938 64.371094 117.46875 61.402344 C 99.558594 43.65625 70.554688 43.785156 52.808594 61.695312 C 35.066406 79.605469 35.199219 108.609375 53.105469 126.355469 C 62.0625 135.226562 73.785156 139.632812 85.496094 139.578125 C 97.203125 139.527344 108.894531 135.015625 117.765625 126.0625 C 120.734375 123.070312 120.710938 118.238281 117.71875 115.269531 C 114.726562 112.304688 109.894531 112.324219 106.925781 115.320312 C 95.101562 127.246094 75.777344 127.335938 63.851562 115.515625 C 51.921875 103.691406 51.832031 84.367188 63.652344 72.4375 C 75.472656 60.511719 94.792969 60.417969 106.726562 72.242188 Z M 106.726562 72.242188 " fill-opacity="1" fill-rule="nonzero"/><g clip-path="url(#f8862d5b43)"><path fill="#afb42b" d="M 155.964844 125.929688 C 155.921875 115.738281 151.90625 106.175781 144.667969 99 C 141.679688 96.039062 141.660156 91.199219 144.621094 88.210938 C 159.425781 73.265625 159.3125 49.058594 144.371094 34.253906 C 111.492188 1.675781 58.238281 1.917969 25.660156 34.796875 C 9.878906 50.726562 1.242188 71.84375 1.347656 94.265625 C 1.449219 116.6875 10.273438 137.726562 26.203125 153.507812 C 42.640625 169.796875 64.171875 177.878906 85.667969 177.78125 C 107.164062 177.683594 128.621094 169.402344 144.910156 152.964844 C 152.089844 145.726562 156.011719 136.121094 155.964844 125.929688 Z M 134.074219 142.21875 C 107.421875 169.117188 63.847656 169.320312 36.945312 142.667969 C 23.914062 129.753906 16.691406 112.539062 16.605469 94.195312 C 16.523438 75.847656 23.589844 58.570312 36.5 45.539062 C 63.152344 18.640625 106.726562 18.4375 133.628906 45.09375 C 142.59375 53.980469 142.660156 68.503906 133.773438 77.46875 C 124.890625 86.429688 124.957031 100.957031 133.921875 109.84375 C 138.265625 114.148438 140.671875 119.886719 140.699219 126 C 140.734375 132.117188 138.378906 137.878906 134.074219 142.21875 " fill-opacity="1" fill-rule="nonzero"/></g><path fill="#afb42b" d="M 84.179688 106.277344 C 83.363281 106.277344 82.558594 106.199219 81.757812 106.039062 C 80.960938 105.878906 80.183594 105.644531 79.433594 105.332031 C 78.679688 105.023438 77.964844 104.640625 77.289062 104.1875 C 76.613281 103.734375 75.988281 103.222656 75.410156 102.644531 C 74.835938 102.070312 74.320312 101.445312 73.867188 100.765625 C 73.417969 100.089844 73.035156 99.375 72.722656 98.625 C 72.410156 97.871094 72.175781 97.097656 72.019531 96.296875 C 71.859375 95.5 71.78125 94.691406 71.78125 93.878906 C 71.78125 93.066406 71.859375 92.257812 72.019531 91.460938 C 72.175781 90.660156 72.410156 89.886719 72.722656 89.132812 C 73.035156 88.382812 73.417969 87.667969 73.867188 86.992188 C 74.320312 86.3125 74.835938 85.6875 75.410156 85.113281 C 75.988281 84.535156 76.613281 84.023438 77.289062 83.570312 C 77.964844 83.117188 78.679688 82.734375 79.433594 82.425781 C 80.183594 82.113281 80.960938 81.878906 81.757812 81.71875 C 82.558594 81.558594 83.363281 81.480469 84.179688 81.480469 C 84.992188 81.480469 85.796875 81.558594 86.597656 81.71875 C 87.394531 81.878906 88.171875 82.113281 88.921875 82.425781 C 89.675781 82.734375 90.390625 83.117188 91.066406 83.570312 C 91.742188 84.023438 92.371094 84.535156 92.945312 85.113281 C 93.519531 85.6875 94.035156 86.3125 94.488281 86.992188 C 94.9375 87.667969 95.320312 88.382812 95.632812 89.132812 C 95.945312 89.886719 96.179688 90.660156 96.339844 91.460938 C 96.496094 92.257812 96.578125 93.066406 96.578125 93.878906 C 96.578125 94.691406 96.496094 95.5 96.339844 96.296875 C 96.179688 97.097656 95.945312 97.871094 95.632812 98.625 C 95.320312 99.375 94.9375 100.089844 94.488281 100.765625 C 94.035156 101.445312 93.519531 102.070312 92.945312 102.644531 C 92.371094 103.222656 91.742188 103.734375 91.066406 104.1875 C 90.390625 104.640625 89.675781 105.023438 88.921875 105.332031 C 88.171875 105.644531 87.394531 105.878906 86.597656 106.039062 C 85.796875 106.199219 84.992188 106.277344 84.179688 106.277344 Z M 84.179688 106.277344 " fill-opacity="1" fill-rule="nonzero"/><g fill="#666666" fill-opacity="1"><g transform="translate(173.249222, 134.188602)"><g><path d="M 41.625 1.1875 C 34.570312 1.1875 28.226562 -0.375 22.59375 -3.5 C 16.957031 -6.625 12.53125 -11.050781 9.3125 -16.78125 C 6.101562 -22.507812 4.5 -29.117188 4.5 -36.609375 C 4.5 -44.085938 6.148438 -50.691406 9.453125 -56.421875 C 12.753906 -62.148438 17.265625 -66.578125 22.984375 -69.703125 C 28.710938 -72.828125 35.101562 -74.390625 42.15625 -74.390625 C 49.195312 -74.390625 55.582031 -72.828125 61.3125 -69.703125 C 67.039062 -66.578125 71.554688 -62.148438 74.859375 -56.421875 C 78.160156 -50.691406 79.8125 -44.085938 79.8125 -36.609375 C 79.8125 -29.117188 78.113281 -22.507812 74.71875 -16.78125 C 71.332031 -11.050781 66.753906 -6.625 60.984375 -3.5 C 55.210938 -0.375 48.757812 1.1875 41.625 1.1875 Z M 41.625 -14.9375 C 44.96875 -14.9375 48.113281 -15.75 51.0625 -17.375 C 54.019531 -19.007812 56.378906 -21.453125 58.140625 -24.703125 C 59.898438 -27.960938 60.78125 -31.929688 60.78125 -36.609375 C 60.78125 -43.566406 58.953125 -48.914062 55.296875 -52.65625 C 51.640625 -56.40625 47.171875 -58.28125 41.890625 -58.28125 C 36.597656 -58.28125 32.164062 -56.40625 28.59375 -52.65625 C 25.03125 -48.914062 23.25 -43.566406 23.25 -36.609375 C 23.25 -29.640625 24.988281 -24.285156 28.46875 -20.546875 C 31.957031 -16.804688 36.34375 -14.9375 41.625 -14.9375 Z M 41.625 -14.9375 "/></g></g></g><g fill="#666666" fill-opacity="1"><g transform="translate(257.535633, 134.188602)"><g><path d="M 4.359375 -36.875 C 4.359375 -44.269531 5.832031 -50.828125 8.78125 -56.546875 C 11.738281 -62.273438 15.769531 -66.679688 20.875 -69.765625 C 25.988281 -72.847656 31.671875 -74.390625 37.921875 -74.390625 C 42.679688 -74.390625 47.21875 -73.351562 51.53125 -71.28125 C 55.851562 -69.21875 59.289062 -66.46875 61.84375 -63.03125 L 61.84375 -97.78125 L 80.609375 -97.78125 L 80.609375 0 L 61.84375 0 L 61.84375 -10.828125 C 59.550781 -7.222656 56.332031 -4.316406 52.1875 -2.109375 C 48.050781 0.0859375 43.253906 1.1875 37.796875 1.1875 C 31.628906 1.1875 25.988281 -0.394531 20.875 -3.5625 C 15.769531 -6.738281 11.738281 -11.210938 8.78125 -16.984375 C 5.832031 -22.753906 4.359375 -29.382812 4.359375 -36.875 Z M 61.96875 -36.609375 C 61.96875 -41.097656 61.085938 -44.945312 59.328125 -48.15625 C 57.566406 -51.375 55.1875 -53.84375 52.1875 -55.5625 C 49.195312 -57.28125 45.984375 -58.140625 42.546875 -58.140625 C 39.109375 -58.140625 35.9375 -57.300781 33.03125 -55.625 C 30.125 -53.957031 27.765625 -51.515625 25.953125 -48.296875 C 24.148438 -45.078125 23.25 -41.269531 23.25 -36.875 C 23.25 -32.46875 24.148438 -28.609375 25.953125 -25.296875 C 27.765625 -21.992188 30.144531 -19.460938 33.09375 -17.703125 C 36.050781 -15.941406 39.203125 -15.0625 42.546875 -15.0625 C 45.984375 -15.0625 49.195312 -15.921875 52.1875 -17.640625 C 55.1875 -19.359375 57.566406 -21.820312 59.328125 -25.03125 C 61.085938 -28.25 61.96875 -32.109375 61.96875 -36.609375 Z M 61.96875 -36.609375 "/></g></g></g><g fill="#666666" fill-opacity="1"><g transform="translate(347.106475, 134.188602)"><g><path d="M 77.171875 -38.1875 C 77.171875 -35.539062 76.992188 -33.160156 76.640625 -31.046875 L 23.125 -31.046875 C 23.5625 -25.765625 25.410156 -21.625 28.671875 -18.625 C 31.929688 -15.632812 35.941406 -14.140625 40.703125 -14.140625 C 47.566406 -14.140625 52.453125 -17.09375 55.359375 -23 L 75.3125 -23 C 73.207031 -15.945312 69.15625 -10.148438 63.15625 -5.609375 C 57.164062 -1.078125 49.8125 1.1875 41.09375 1.1875 C 34.050781 1.1875 27.734375 -0.375 22.140625 -3.5 C 16.546875 -6.625 12.179688 -11.050781 9.046875 -16.78125 C 5.921875 -22.507812 4.359375 -29.117188 4.359375 -36.609375 C 4.359375 -44.179688 5.898438 -50.828125 8.984375 -56.546875 C 12.066406 -62.273438 16.382812 -66.679688 21.9375 -69.765625 C 27.488281 -72.847656 33.875 -74.390625 41.09375 -74.390625 C 48.050781 -74.390625 54.28125 -72.890625 59.78125 -69.890625 C 65.289062 -66.898438 69.566406 -62.648438 72.609375 -57.140625 C 75.648438 -51.640625 77.171875 -45.320312 77.171875 -38.1875 Z M 58.015625 -43.46875 C 57.921875 -48.226562 56.195312 -52.039062 52.84375 -54.90625 C 49.5 -57.769531 45.40625 -59.203125 40.5625 -59.203125 C 35.988281 -59.203125 32.132812 -57.8125 29 -55.03125 C 25.875 -52.257812 23.957031 -48.40625 23.25 -43.46875 Z M 58.015625 -43.46875 "/></g></g></g><g fill="#666666" fill-opacity="1"><g transform="translate(428.61857, 134.188602)"><g><path d="M 42.6875 -58.015625 L 29.859375 -58.015625 L 29.859375 0 L 11.09375 0 L 11.09375 -58.015625 L 2.78125 -58.015625 L 2.78125 -73.203125 L 11.09375 -73.203125 L 11.09375 -76.90625 C 11.09375 -85.894531 13.644531 -92.5 18.75 -96.71875 C 23.863281 -100.945312 31.578125 -102.929688 41.890625 -102.671875 L 41.890625 -87.078125 C 37.398438 -87.171875 34.269531 -86.421875 32.5 -84.828125 C 30.738281 -83.242188 29.859375 -80.382812 29.859375 -76.25 L 29.859375 -73.203125 L 42.6875 -73.203125 Z M 42.6875 -58.015625 "/></g></g></g><g fill="#666666" fill-opacity="1"><g transform="translate(474.196643, 134.188602)"><g><path d="M 18.5 -81.921875 C 15.238281 -81.921875 12.53125 -82.957031 10.375 -85.03125 C 8.21875 -87.101562 7.140625 -89.679688 7.140625 -92.765625 C 7.140625 -95.847656 8.21875 -98.421875 10.375 -100.484375 C 12.53125 -102.554688 15.238281 -103.59375 18.5 -103.59375 C 21.757812 -103.59375 24.46875 -102.554688 26.625 -100.484375 C 28.78125 -98.421875 29.859375 -95.847656 29.859375 -92.765625 C 29.859375 -89.679688 28.78125 -87.101562 26.625 -85.03125 C 24.46875 -82.957031 21.757812 -81.921875 18.5 -81.921875 Z M 27.625 -73.203125 L 27.625 0 L 9.125 0 L 9.125 -73.203125 Z M 27.625 -73.203125 "/></g></g></g><g fill="#666666" fill-opacity="1"><g transform="translate(510.923332, 134.188602)"><g><path d="M 30.65625 -58.015625 L 30.65625 -22.59375 C 30.65625 -20.125 31.25 -18.335938 32.4375 -17.234375 C 33.625 -16.140625 35.628906 -15.59375 38.453125 -15.59375 L 47.046875 -15.59375 L 47.046875 0 L 35.40625 0 C 19.820312 0 12.03125 -7.578125 12.03125 -22.734375 L 12.03125 -58.015625 L 3.296875 -58.015625 L 3.296875 -73.203125 L 12.03125 -73.203125 L 12.03125 -91.3125 L 30.65625 -91.3125 L 30.65625 -73.203125 L 47.046875 -73.203125 L 47.046875 -58.015625 Z M 30.65625 -58.015625 "/></g></g></g></svg>